<?xml version="1.0" encoding="UTF-8" standalone="no"?>
<svg
   xmlns:dc="http://purl.org/dc/elements/1.1/"
   xmlns:cc="http://creativecommons.org/ns#"
   xmlns:rdf="http://www.w3.org/1999/02/22-rdf-syntax-ns#"
   xmlns:svg="http://www.w3.org/2000/svg"
   xmlns="http://www.w3.org/2000/svg"
   viewBox="0 0 1125 1125"
   height="1125"
   width="1125"
   xml:space="preserve"
   version="1.1"
   id="svg2"><metadata
     id="metadata8"><rdf:RDF><cc:Work
         rdf:about=""><dc:format>image/svg+xml</dc:format><dc:type
           rdf:resource="http://purl.org/dc/dcmitype/StillImage" /></cc:Work></rdf:RDF></metadata><defs
     id="defs6" /><g
     transform="matrix(1.25,0,0,-1.25,0,1125)"
     id="g10"><g
       transform="scale(0.1,0.1)"
       id="g12"><path
         id="path14"
         style="fill:#ef3234;fill-opacity:1;fill-rule:nonzero;stroke:none"
         d="m 4384.8,2545.34 0,0 c 71.93,9.71 -53,76.5 -62.71,148.42 l 76.39,736.82 -118.45,877.57 c -9.71,71.92 -68.37,113.12 -148.42,113.12 l -1119.68,0 253.2,-1875.93 1119.67,0" /><path
         id="path16"
         style="fill:#bc272e;fill-opacity:1;fill-rule:nonzero;stroke:none"
         d="m 3152.76,3377.75 55.19,-408.79 46.75,-346.59 1232.86,0 c 9.77,21.69 13.78,46.21 10.4,71.37 l -37.15,275.22 -55.18,408.79 -1252.87,0" /><path
         id="path18"
         style="fill:#94252d;fill-opacity:1;fill-rule:nonzero;stroke:none"
         d="m 3207.95,2968.96 46.75,-346.59 1232.86,0 c 9.77,21.69 13.78,46.21 10.4,71.37 l -37.15,275.22 -1252.86,0" /><path
         id="path20"
         style="fill:#94252d;fill-opacity:1;fill-rule:nonzero;stroke:none"
         d="m 3116.71,2658.46 -217.89,1614.39 c -9.71,71.93 41.19,138.71 113.11,148.42 71.93,9.71 138.71,-41.2 148.42,-113.12 l 217.89,-1614.39 c 9.71,-71.92 -41.19,-138.71 -113.11,-148.42 -71.93,-9.71 -138.71,41.19 -148.42,113.12" /><path
         id="path22"
         style="fill:#c7c6cb;fill-opacity:1;fill-rule:nonzero;stroke:none"
         d="m 3862.94,1531.99 153.488,0 0,905.32 -153.488,0 0,-905.32 z" /><path
         id="path24"
         style="fill:#978baf;fill-opacity:1;fill-rule:nonzero;stroke:none"
         d="m 4016.43,2384.62 0,-204.6 -153.49,-120.48 0,318.38 c 38.41,1.82 112.34,4.89 153.49,6.7" /><path
         id="path26"
         style="fill:#373642;fill-opacity:1;fill-rule:nonzero;stroke:none"
         d="m 5006.29,2364.11 -1663.46,0 c -37.72,0 -68.58,30.86 -68.58,68.58 0,37.73 30.86,68.59 68.58,68.59 l 1663.46,0 c 37.71,0 68.58,-30.86 68.58,-68.59 0,-37.72 -30.87,-68.58 -68.58,-68.58" /><path
         id="path28"
         style="fill:#bc272e;fill-opacity:1;fill-rule:nonzero;stroke:none"
         d="m 5075.33,2446.41 -1232.66,0 c -94.33,0 -171.5,77.17 -171.5,171.49 0,94.32 77.17,171.49 171.5,171.49 l 1232.66,0 c 94.32,0 171.49,-77.17 171.49,-171.49 0,-94.32 -77.17,-171.49 -171.49,-171.49" /><path
         id="path30"
         style="fill:#94252d;fill-opacity:1;fill-rule:nonzero;stroke:none"
         d="m 3938.25,2441.84 -630.54,0 c -94.33,0 -171.5,77.17 -171.5,171.49 0,94.32 77.17,171.48 171.5,171.48 l 630.54,0 c 94.33,0 171.5,-77.16 171.5,-171.48 0,-94.32 -77.17,-171.49 -171.5,-171.49" /><path
         id="path32"
         style="fill:#424252;fill-opacity:1;fill-rule:nonzero;stroke:none"
         d="m 4679.08,1230.17 -96.01,0 c 0,114.72 -93.33,208.04 -208.04,208.04 l -877.32,0 c -114.71,0 -208.03,-93.32 -208.03,-208.04 l -96.03,0 c 0,167.66 136.4,304.06 304.06,304.06 l 877.32,0 c 167.66,0 304.05,-136.4 304.05,-304.06" /><path
         id="path34"
         style="fill:#424252;fill-opacity:1;fill-rule:nonzero;stroke:none"
         d="m 3826.63,1531.94 224.043,0 0,146.32 -224.043,0 0,-146.32 z" /><path
         id="path36"
         style="fill:#17243f;fill-opacity:1;fill-rule:nonzero;stroke:none"
         d="m 3317.76,1137.32 c 0,-44.04 -35.71,-79.75 -79.76,-79.75 -44.04,0 -79.76,35.71 -79.76,79.75 0,44.05 35.72,79.76 79.76,79.76 44.05,0 79.76,-35.71 79.76,-79.76" /><path
         id="path38"
         style="fill:#c7c6cb;fill-opacity:1;fill-rule:nonzero;stroke:none"
         d="m 3353.02,1144.36 -218.27,0 0,20.05 c 0,60.28 48.85,109.14 109.14,109.14 60.27,0 109.13,-48.86 109.13,-109.14 l 0,-20.05" /><path
         id="path40"
         style="fill:#17243f;fill-opacity:1;fill-rule:nonzero;stroke:none"
         d="m 4715.34,1137.32 c 0,-44.04 -35.71,-79.75 -79.76,-79.75 -44.05,0 -79.76,35.71 -79.76,79.75 0,44.05 35.71,79.76 79.76,79.76 44.05,0 79.76,-35.71 79.76,-79.76" /><path
         id="path42"
         style="fill:#c7c6cb;fill-opacity:1;fill-rule:nonzero;stroke:none"
         d="m 4750.6,1144.36 -218.28,0 0,20.05 c 0,60.28 48.86,109.14 109.14,109.14 l 0,0 c 60.28,0 109.14,-48.86 109.14,-109.14 l 0,-20.05" /><path
         id="path44"
         style="fill:#424252;fill-opacity:1;fill-rule:nonzero;stroke:none"
         d="m 3879.63,1216.46 127.09,0 0,288.051 -127.09,0 0,-288.051 z" /><path
         id="path46"
         style="fill:#17243f;fill-opacity:1;fill-rule:nonzero;stroke:none"
         d="m 4025.62,1137.32 c 0,-44.04 -35.72,-79.75 -79.76,-79.75 -44.05,0 -79.77,35.71 -79.77,79.75 0,44.05 35.72,79.76 79.77,79.76 44.04,0 79.76,-35.71 79.76,-79.76" /><path
         id="path48"
         style="fill:#c7c6cb;fill-opacity:1;fill-rule:nonzero;stroke:none"
         d="m 4060.87,1144.36 -218.27,0 0,20.05 c 0,60.28 48.86,109.14 109.14,109.14 60.27,0 109.13,-48.86 109.13,-109.14 l 0,-20.05" /><path
         id="path50"
         style="fill:#9386ac;fill-opacity:1;fill-rule:nonzero;stroke:none"
         d="m 7470.45,1002.42 -6135.79,0 c -48.37,0 -87.94,39.57 -87.94,87.94 0,48.37 39.57,87.94 87.94,87.94 l 6135.79,0 c 48.36,0 87.93,-39.57 87.93,-87.94 0,-48.37 -39.57,-87.94 -87.93,-87.94" /><path
         id="path52"
         style="fill:#9892ab;fill-opacity:1;fill-rule:nonzero;stroke:none"
         d="m 5993.25,7059.17 362.379,0 0,189.477 -362.379,0 0,-189.477 z" /><path
         id="path54"
         style="fill:#fbc038;fill-opacity:1;fill-rule:nonzero;stroke:none"
         d="m 6521.77,7653.13 c 0,-195.89 -158.8,-354.69 -354.69,-354.69 -195.89,0 -354.69,158.8 -354.69,354.69 0,195.89 158.8,354.69 354.69,354.69 195.89,0 354.69,-158.8 354.69,-354.69" /><path
         id="path56"
         style="fill:#fbc038;fill-opacity:1;fill-rule:nonzero;stroke:none"
         d="m 5985.96,7225.28 377.328,0 0,246.738 -377.328,0 0,-246.738 z" /><path
         id="path58"
         style="fill:#fbda4c;fill-opacity:1;fill-rule:nonzero;stroke:none"
         d="m 6438.76,7645.59 c 0,-147.96 -119.95,-267.91 -267.91,-267.91 -147.96,0 -267.9,119.95 -267.9,267.91 0,147.95 119.94,267.9 267.9,267.9 147.96,0 267.91,-119.95 267.91,-267.9" /><path
         id="path60"
         style="fill:none;stroke:#ffffff;stroke-width:30.18630028;stroke-linecap:butt;stroke-linejoin:round;stroke-miterlimit:10;stroke-dasharray:none;stroke-opacity:1"
         d="m 6091.61,7238.07 -103.76,490.53 c 0,0 58.49,-66.04 109.43,-54.71 50.93,11.32 64.14,99.99 16.98,98.1 -47.17,-1.89 -41.52,-130.18 69.8,-128.29 139.26,2.36 94.33,115.08 60.37,113.2 -53.04,-2.95 -56.6,-113.2 28.3,-115.09 84.9,-1.88 115.09,81.13 115.09,81.13 L 6248.2,7241.85" /><path
         id="path62"
         style="fill:#9892ab;fill-opacity:1;fill-rule:nonzero;stroke:none"
         d="m 6196.76,6947.52 -55.58,0 c -68.55,0 -129.47,45.54 -151.44,113.21 l 358.45,0 c -21.97,-67.67 -82.89,-113.21 -151.43,-113.21" /><path
         id="path64"
         style="fill:#fbc038;fill-opacity:1;fill-rule:nonzero;stroke:none"
         d="m 5882.31,8000.56 0,0 c 12.18,13.19 14.02,32.92 4.49,48.14 l -125.14,199.74 c -28.12,44.86 -90.62,51.95 -128.07,14.51 -35.2,-35.2 -31.37,-93.35 8.15,-123.64 l 187.1,-143.35 c 16.33,-12.52 39.51,-10.53 53.47,4.6" /><path
         id="path66"
         style="fill:#fbc038;fill-opacity:1;fill-rule:nonzero;stroke:none"
         d="m 5723.95,7767.27 0,0 c 0.11,17.96 -11.8,33.78 -29.1,38.62 l -226.99,63.49 c -50.98,14.26 -101.99,-22.58 -104.48,-75.46 -2.34,-49.74 39.64,-90.17 89.25,-85.96 l 234.86,19.91 c 20.51,1.74 36.31,18.82 36.46,39.4" /><path
         id="path68"
         style="fill:#fbc038;fill-opacity:1;fill-rule:nonzero;stroke:none"
         d="m 6158.42,8106.74 0,0 c 17.82,2.27 31.92,16.19 34.41,33.97 l 32.75,233.42 c 7.35,52.43 -35.94,98.08 -88.69,93.52 -49.6,-4.3 -84.09,-51.28 -73.33,-99.88 l 50.97,-230.13 c 4.44,-20.1 23.48,-33.49 43.89,-30.9" /><path
         id="path70"
         style="fill:#fbc038;fill-opacity:1;fill-rule:nonzero;stroke:none"
         d="m 6420.75,7995.79 0,0 c 15.23,-9.53 34.95,-7.68 48.15,4.5 l 173.13,159.94 c 38.89,35.92 34.28,98.68 -9.43,128.54 -41.12,28.08 -97.56,13.55 -120,-30.89 l -106.26,-210.39 c -9.28,-18.37 -3.04,-40.78 14.41,-51.7" /><path
         id="path72"
         style="fill:#fbc038;fill-opacity:1;fill-rule:nonzero;stroke:none"
         d="m 6599.58,7813.64 0,0 c 5.75,-17.01 22.19,-28.07 40.12,-26.99 l 235.27,14.19 c 52.84,3.19 89.01,54.68 74.07,105.47 -14.04,47.77 -66.92,72.26 -112.44,52.06 l -215.45,-95.58 c -18.81,-8.35 -28.16,-29.65 -21.57,-49.15" /><path
         id="path74"
         style="fill:#fbc3ac;fill-opacity:1;fill-rule:nonzero;stroke:none"
         d="m 6123.75,6155 58.27,246.43 c 3.71,15.73 -6.11,31.64 -21.83,35.36 l -6.53,1.54 c -15.72,3.72 -31.63,-6.11 -35.35,-21.84 l -58.27,-246.43 c -3.71,-15.72 6.11,-31.63 21.84,-35.35 l 6.52,-1.55 c 15.72,-3.71 31.63,6.11 35.35,21.84" /><path
         id="path76"
         style="fill:#fbc3ac;fill-opacity:1;fill-rule:nonzero;stroke:none"
         d="m 6130.85,6069.65 80.98,187.94 c 6.39,14.84 -0.52,32.21 -15.37,38.61 l -6.15,2.65 c -14.84,6.4 -32.21,-0.51 -38.61,-15.35 l -80.98,-187.95 c -6.39,-14.84 0.52,-32.21 15.36,-38.61 l 6.16,-2.65 c 14.84,-6.39 32.21,0.51 38.61,15.36" /><path
         id="path78"
         style="fill:#fbc3ac;fill-opacity:1;fill-rule:nonzero;stroke:none"
         d="m 6073.83,6053.56 -5.19,204.58 c -0.4,16.16 -13.95,29.04 -30.1,28.63 l -6.71,-0.16 c -16.16,-0.41 -29.04,-13.97 -28.63,-30.12 l 5.18,-204.59 c 0.41,-16.15 13.96,-29.03 30.12,-28.62 l 6.71,0.17 c 16.15,0.41 29.03,13.96 28.62,30.11" /><path
         id="path80"
         style="fill:#fbc3ac;fill-opacity:1;fill-rule:nonzero;stroke:none"
         d="m 6165.86,5993.64 94.45,221.71 c 6.33,14.87 -0.65,32.21 -15.52,38.55 l -6.17,2.63 c -14.86,6.33 -32.2,-0.65 -38.54,-15.52 l -94.45,-221.71 c -6.33,-14.87 0.65,-32.22 15.51,-38.55 l 6.17,-2.63 c 14.87,-6.33 32.22,0.65 38.55,15.52" /><path
         id="path82"
         style="fill:#fbc3ac;fill-opacity:1;fill-rule:nonzero;stroke:none"
         d="m 6202.75,5936.09 94.46,221.71 c 6.33,14.87 -0.66,32.21 -15.52,38.55 l -6.17,2.62 c -14.87,6.34 -32.21,-0.64 -38.55,-15.51 l -94.45,-221.72 c -6.33,-14.87 0.65,-32.21 15.52,-38.54 l 6.17,-2.63 c 14.86,-6.33 32.21,0.65 38.54,15.52" /><path
         id="path84"
         style="fill:#fbc3ac;fill-opacity:1;fill-rule:nonzero;stroke:none"
         d="m 6083.62,6255.41 c -0.99,-2.44 -15.75,-28.4 -31.83,-56.47 -27.78,-48.49 -43.6,-102.91 -46.18,-158.73 l -4.97,-106.88 c 0,0 169.47,-30.56 174.32,-24.58 118.62,146 75.65,242.16 75.65,242.16 l -166.99,104.5" /><path
         id="path86"
         style="fill:#ffffff;fill-opacity:1;fill-rule:nonzero;stroke:none"
         d="m 5953.17,5941.96 35.42,90.52 259.73,-110.19 -55.09,-102.32 -240.06,121.99" /><path
         id="path88"
         style="fill:#1a2545;fill-opacity:1;fill-rule:nonzero;stroke:none"
         d="m 6244.38,5855.39 c 0,0 -227.55,-556.92 -228.24,-558.82 -66.9,-172.12 -236.63,-304.69 -421.07,-283.34 -27.65,3.2 -96.55,21.04 -125.94,31.49 -36.96,13.17 -436.7,263.5 -436.7,263.5 l -47.57,454.17 c 0,0 493.32,-345.71 521.79,-363.71 48.74,-30.82 114.46,-44.74 140.35,-34.88 45.51,16.69 65.77,37.65 88.47,75.87 112.07,188.05 217.75,541.56 217.75,541.56 l 291.16,-125.84" /><path
         id="path90"
         style="fill:#551635;fill-opacity:1;fill-rule:nonzero;stroke:none"
         d="m 4982.12,1629.3 c -1.63,-21.82 -10.24,-333.37 -10.24,-333.37 l 230.41,-4.3 -5.11,390.5 -215.06,-52.83" /><path
         id="path92"
         style="fill:#171d39;fill-opacity:1;fill-rule:nonzero;stroke:none"
         d="m 4875.96,3747.24 c -0.4,-2.63 -0.18,-17.1 0.59,-41.9 11.29,-362.81 74.87,-2341.77 74.87,-2341.77 l 297.2,10.1 78.61,2316.71 -451.27,56.86" /><path
         id="path94"
         style="fill:#5d5b72;fill-opacity:1;fill-rule:nonzero;stroke:none"
         d="m 4950.53,1105.03 607.88,-4.4 c 36.25,-0.26 65.83,29.09 66.06,65.55 0.19,28.08 -17.3,53.21 -43.6,62.65 l -300.07,107.7 -328.79,-5.68 -1.48,-225.82" /><path
         id="path96"
         style="fill:none;stroke:#171d39;stroke-width:14.63809967;stroke-linecap:round;stroke-linejoin:miter;stroke-miterlimit:10;stroke-dasharray:none;stroke-opacity:1"
         d="m 5273.44,1247.12 71.33,76.76" /><path
         id="path98"
         style="fill:none;stroke:#171d39;stroke-width:14.63809967;stroke-linecap:round;stroke-linejoin:miter;stroke-miterlimit:10;stroke-dasharray:none;stroke-opacity:1"
         d="m 5325.75,1224.94 71.33,76.76" /><path
         id="path100"
         style="fill:none;stroke:#171d39;stroke-width:14.63809967;stroke-linecap:round;stroke-linejoin:miter;stroke-miterlimit:10;stroke-dasharray:none;stroke-opacity:1"
         d="m 5375.87,1195.25 80.29,87.04" /><path
         id="path102"
         style="fill:#551635;fill-opacity:1;fill-rule:nonzero;stroke:none"
         d="m 4460.5,1633.1 c -1.25,-21.72 -4.38,-331.55 -4.38,-331.55 l 230.45,-0.19 -11.98,388.07 -214.09,-56.33" /><path
         id="path104"
         style="fill:#171d39;fill-opacity:1;fill-rule:nonzero;stroke:none"
         d="m 4317.03,3736.46 c -0.35,-2.62 0.13,-17 1.34,-41.63 17.67,-360.44 116.1,-2326.41 116.1,-2326.41 l 296.99,15.31 37.78,2304.2 -452.21,48.53" /><path
         id="path106"
         style="fill:#716c84;fill-opacity:1;fill-rule:nonzero;stroke:none"
         d="m 4433.46,1110.21 607.43,-23.48 c 36.23,-1.4 66.73,26.83 68.12,63.05 1.08,27.9 -15.6,53.42 -41.59,63.63 l -296.48,116.46 -328.8,4.69 -8.68,-224.35" /><path
         id="path108"
         style="fill:none;stroke:#171d39;stroke-width:14.59529972;stroke-linecap:round;stroke-linejoin:miter;stroke-miterlimit:10;stroke-dasharray:none;stroke-opacity:1"
         d="m 4760.73,1241.25 73.73,74.03" /><path
         id="path110"
         style="fill:none;stroke:#171d39;stroke-width:14.59529972;stroke-linecap:round;stroke-linejoin:miter;stroke-miterlimit:10;stroke-dasharray:none;stroke-opacity:1"
         d="m 4812.32,1217.57 73.73,74.03" /><path
         id="path112"
         style="fill:none;stroke:#171d39;stroke-width:14.59529972;stroke-linecap:round;stroke-linejoin:miter;stroke-miterlimit:10;stroke-dasharray:none;stroke-opacity:1"
         d="m 4861.46,1186.49 83.02,83.96" /><path
         id="path114"
         style="fill:#171d39;fill-opacity:1;fill-rule:nonzero;stroke:none"
         d="m 5343.15,3799.72 c 6.39,-66.1 -11.28,-128.95 -45.81,-179.94 -44.12,-65.41 -116.22,-111.38 -201.05,-119.58 l -459.22,-44.37 c -13.66,-1.32 -27.12,-1.6 -40.39,-0.83 -34.17,1.54 -66.92,9.66 -96.95,23.04 -5.35,2.27 -10.59,4.84 -15.7,7.58 -79.51,41.43 -137.2,121.05 -146.47,216.93 l -5.66,146.53 988.36,104.15 22.89,-153.51" /><path
         id="path116"
         style="fill:#f79e87;fill-opacity:1;fill-rule:nonzero;stroke:none"
         d="m 4765.77,5694.76 -96.86,-11.01 c -59.47,-6.76 -113.65,36.37 -120.4,95.84 l -41.37,364.1 c -6.75,59.46 36.38,113.64 95.84,120.4 l 96.87,11 c 59.47,6.76 113.65,-36.37 120.4,-95.84 l 41.36,-364.09 c 6.76,-59.47 -36.37,-113.65 -95.84,-120.4" /><path
         id="path118"
         style="fill:#e97d23;fill-opacity:1;fill-rule:nonzero;stroke:none"
         d="m 5243.65,6643.63 c 0.32,-7.37 0.49,-14.74 0.51,-22.13 -0.13,-35.56 -3.91,-70.53 -11.19,-104.15 -31.04,-143.87 -124.65,-265.58 -252.22,-333.45 -63.34,-33.77 -135.1,-54.18 -211.65,-57.47 -123.93,-5.34 -224.74,-65.26 -314.76,6.21 -29.02,23.01 -55.45,49 -78.54,77.84 -9.08,11.36 -17.71,22.89 -25.76,34.9 -49.11,73.23 -94.08,261.15 -98.15,355.6 -11.45,266.36 189.16,492.73 452.02,515.93 7.5,0.63 15.02,1.1 22.54,1.43 166.94,7.18 318.03,-68.9 413.41,-191.52 l 0.16,-0.14 c 27.92,-36.02 51.04,-76.16 68.42,-119.26 20.42,-50.81 32.73,-106.03 35.21,-163.79" /><path
         id="path120"
         style="fill:#fabebd;fill-opacity:1;fill-rule:nonzero;stroke:none"
         d="m 4598.29,6467.77 c 0.64,-10.79 -0.66,-21.37 -3.94,-31.29 -3.65,-11.88 -9.82,-24.77 -18.15,-34.23 -15.11,-16.99 -36.39,-30.13 -60.9,-31.6 l -52.66,-3.19 -40.39,-2.53 -7.6,119.88 0.14,0.01 -1.49,22.16 -1.07,17.22 -0.91,15.76 -0.31,4.07 0.13,0.02 92.93,5.72 c 23.48,1.48 45.36,-6.31 62.21,-20.12 10.21,-8.38 18.5,-19.2 24.13,-31.33 4.6,-9.47 7.23,-19.6 7.88,-30.55" /><path
         id="path122"
         style="fill:#fbc3ac;fill-opacity:1;fill-rule:nonzero;stroke:none"
         d="m 5228.45,6590.62 12.04,-193.85 1.82,-29.02 c 1.28,-19.09 0.96,-38.23 -0.45,-56.75 -13.73,-174.01 -140.13,-320.72 -311,-361.87 -5.12,-1.46 -10.43,-2.51 -15.62,-3.39 -18.36,-3.99 -37.04,-6.27 -56.28,-7.57 -18.67,-1.24 -36.91,-0.96 -55.13,0.35 -35.53,2.43 -69.97,9.53 -102.53,20.66 l -0.3,0.12 c -141.81,48.38 -249.89,172.12 -272.22,324.85 -0.68,4.62 -1.33,9.1 -1.72,13.76 -0.9,5.33 -1.23,10.87 -1.57,16.42 l -0.32,2.9 -0.91,13.12 -2.01,34.58 -7.62,118.7 0.02,1.18 -0.02,0.15 -1.33,22.02 -1.07,17.22 -0.91,15.76 -0.18,4.09 c -1.49,27.45 1.02,54.47 6.13,80.6 3.36,18.31 8.06,36.32 13.58,53.7 0.7,2.87 1.45,5.31 2.33,7.9 4.54,14.33 10.12,28.62 16.36,42.26 l 0.11,0.3 c 23.61,52.04 58.12,98.7 100.82,136.61 8.54,7.57 17.4,14.9 26.46,21.8 63.21,47.43 140.26,77.78 224.57,82.95 112.77,6.93 218.98,-31.97 297.76,-100.87 42.21,-36.78 72.34,-82.12 96.37,-133.31 9.27,-19.51 16.14,-39.88 21.02,-60.92 6.46,-27.02 10.1,-55.26 11.8,-84.45" /><path
         id="path124"
         style="fill:#fabebd;fill-opacity:1;fill-rule:nonzero;stroke:none"
         d="m 4455.15,6487.8 7.49,-120.34 4.98,-81.25 -31.95,-2.02 c -2.34,-0.11 -4.67,-0.23 -6.89,-0.04 -53.66,0.36 -99.03,44.12 -102.45,97.5 -1.83,27.7 8.34,52.07 25.79,71.68 15.64,17.49 37.62,28.36 62.53,31.48 l 0.14,0.01 c 2.87,0.62 5.33,0.9 8.27,0.95 l 32.09,2.03" /><path
         id="path126"
         style="fill:#f79e87;fill-opacity:1;fill-rule:nonzero;stroke:none"
         d="m 4847.63,5938.35 c 0,0 -71.97,-13.07 -146.33,20.83 l -0.3,0.12 c -141.81,48.38 -249.89,172.12 -272.22,324.85 -53.66,0.36 -99.03,44.12 -102.45,97.5 -1.83,27.7 8.34,52.07 25.79,71.68 15.64,17.49 37.62,28.36 62.53,31.48 l -0.02,0.15 -1.33,22.02 -1.07,17.22 -0.91,15.76 -0.31,4.07 0.13,0.02 c -1.49,27.45 1.02,54.47 6.13,80.6 51.34,36.83 106.51,48.98 146.06,-16.01 0,0 0.34,-31.4 2.95,-78.99 1.85,-35.63 4.85,-80.24 9.92,-127.4 10.14,-96.97 28.24,-204.64 60.66,-267.5 69,-134.21 210.77,-196.4 210.77,-196.4" /><path
         id="path128"
         style="fill:#e97d23;fill-opacity:1;fill-rule:nonzero;stroke:none"
         d="m 5220.66,6872.71 -669.73,-76.09 c -38.54,-4.37 -73.64,23.57 -78.02,62.1 l -1.82,15.99 c -4.37,38.53 23.57,73.64 62.1,78.01 l 669.74,76.09 c 38.53,4.38 73.64,-23.57 78.02,-62.1 l 1.81,-15.99 c 4.38,-38.53 -23.56,-73.64 -62.1,-78.01" /><path
         id="path130"
         style="fill:#e97d23;fill-opacity:1;fill-rule:nonzero;stroke:none"
         d="m 5362.18,6824.69 c 10.38,-34.44 1.88,-69.16 -18.14,-94.31 -16.45,-20.67 -40.95,-35.2 -69.08,-38.4 l -596.11,-67.72 c -85.5,-9.71 -146.94,-86.9 -137.22,-172.39 l 10.95,-96.37 c 3.63,-31.98 -19.56,-61.13 -51.55,-64.76 l -13.77,-1.57 c -32.12,-3.65 -61.12,19.43 -64.77,51.55 l -32.98,290.33 c -0.26,2.32 -0.36,4.51 -0.32,6.72 -12.87,14.99 -21.48,33.99 -23.86,54.87 -3.21,28.29 5.47,55.27 21.91,76.08 16.45,20.68 40.95,35.21 69.09,38.4 l 791.05,89.87 c 50.47,5.73 100.15,-23.67 114.8,-72.3" /><path
         id="path132"
         style="fill:#e97d23;fill-opacity:1;fill-rule:nonzero;stroke:none"
         d="m 5188.11,6571.94 -132.81,-15.08 c -11.34,-1.29 -21.67,6.93 -22.96,18.26 l -0.52,4.71 c -1.29,11.33 6.93,21.66 18.26,22.95 l 132.81,15.09 c 11.33,1.29 21.66,-6.94 22.95,-18.27 l 0.54,-4.71 c 1.28,-11.33 -6.94,-21.66 -18.27,-22.95" /><path
         id="path134"
         style="fill:#e97d23;fill-opacity:1;fill-rule:nonzero;stroke:none"
         d="m 4876.31,6536.52 -132.8,-15.08 c -11.34,-1.29 -21.66,6.93 -22.95,18.27 l -0.54,4.7 c -1.29,11.33 6.93,21.66 18.27,22.95 l 132.8,15.09 c 11.34,1.29 21.66,-6.94 22.95,-18.27 l 0.54,-4.71 c 1.29,-11.33 -6.93,-21.66 -18.27,-22.95" /><path
         id="path136"
         style="fill:#ffffff;fill-opacity:1;fill-rule:nonzero;stroke:none"
         d="m 4929.39,6211.35 c 23.4,-26.93 51.97,-34.94 82.86,-33.02 36.84,2.28 76.29,23.35 85.49,54.14 l -168.35,-21.12" /><path
         id="path138"
         style="fill:#f79e87;fill-opacity:1;fill-rule:nonzero;stroke:none"
         d="m 5060.75,6332.41 -2.48,-0.21 c 1.73,-20.67 -14.26,-39.05 -58.59,-42.8 l -23.64,161.75 c 53.93,-54.47 77.65,-85.44 84.71,-118.74" /><path
         id="path140"
         style="fill:#16192c;fill-opacity:1;fill-rule:nonzero;stroke:none"
         d="m 4357.42,3586.47 c 0,0 403.81,43.79 398.95,58.38 -4.88,14.6 -4.88,184.88 -4.88,184.88 0,0 321.11,53.52 321.11,34.05 0,-19.45 29.19,-170.27 29.19,-170.27 l 238.39,43.78 -4.87,252.99 -1036.27,-107.03 58.38,-296.78" /><path
         id="path142"
         style="fill:#eff0f2;fill-opacity:1;fill-rule:nonzero;stroke:none"
         d="m 5097.01,3998.9 -428.93,-37.44 -163.57,1873.9 428.94,37.44 163.56,-1873.9" /><path
         id="path144"
         style="fill:#e12a33;fill-opacity:1;fill-rule:nonzero;stroke:none"
         d="m 4755.46,5659.96 -121.12,144 94.07,68.04 121.39,-49.23 -94.34,-162.81" /><path
         id="path146"
         style="fill:#ffffff;fill-opacity:1;fill-rule:nonzero;stroke:none"
         d="m 4939.41,5770.29 -203.05,94.47 -224.75,-138.66 -12.69,145.4 427.72,30.15 12.77,-131.36" /><path
         id="path148"
         style="fill:#9892ab;fill-opacity:1;fill-rule:nonzero;stroke:none"
         d="m 5121.65,3918.57 -448.85,-46.09 -8.01,91.8 448.85,46.09 8.01,-91.8" /><path
         id="path150"
         style="fill:#1a2445;fill-opacity:1;fill-rule:nonzero;stroke:none"
         d="m 5024.58,3901.32 -156.31,-13.64 -8.25,94.5 156.31,13.65 8.25,-94.51" /><path
         id="path152"
         style="fill:#1a2545;fill-opacity:1;fill-rule:nonzero;stroke:none"
         d="m 4689.47,3697.69 c 0,0 -91.36,-30.36 -229.88,-44.95 -50.35,-5.41 -106.98,-8.76 -167.7,-7.74 -3.65,0 -7.14,1.32 -10.5,2.33 l -98.09,1290.38 c -25.83,216.01 -18.24,330.58 -21.01,508.79 -0.43,24.52 -1.02,50.2 -1.9,77.5 -0.59,16.2 1.17,31.38 4.82,45.83 18.97,75.75 90.63,128.58 169.01,167.99 47.15,23.64 96.77,42.47 138.65,58.24 19.56,7.44 7.75,1.16 28.76,4.08 l 187.84,-2102.45" /><path
         id="path154"
         style="fill:#1a2545;fill-opacity:1;fill-rule:nonzero;stroke:none"
         d="m 5398.51,3776.22 -79.69,-7.45 -183.03,-16.93 c 0,0 -213.38,2060.12 -194.55,2053.12 31.96,-11.97 66.41,-30.5 100.26,-54.74 69.48,-49.47 136.47,-122.89 173.98,-212.21 10.8,-25.4 19.12,-52.25 24.23,-80.13 0.29,-1.02 0.58,-2.19 0.73,-3.21 31.82,-176.02 158.07,-1678.45 158.07,-1678.45" /><path
         id="path156"
         style="fill:none;stroke:#9892ab;stroke-width:14.59529972;stroke-linecap:butt;stroke-linejoin:miter;stroke-miterlimit:10;stroke-dasharray:none;stroke-opacity:1"
         d="M 4757.77,5652.66 4918.32,3974.2" /><path
         id="path158"
         style="fill:#2c3467;fill-opacity:1;fill-rule:nonzero;stroke:none"
         d="m 4595.42,4778.42 c 8.7,-17.4 -213.67,627.6 -213.67,627.6 l 72.59,72.98 -128.49,258.56 170.53,113.69 c 0,0 84.45,-1043.64 99.04,-1072.83" /><path
         id="path160"
         style="fill:#2c3467;fill-opacity:1;fill-rule:nonzero;stroke:none"
         d="m 5031.27,4786.07 c -5.32,-18.72 89.98,654.01 89.98,654.01 l -81.07,60.57 60.16,240.46 -177.63,131.45 c 0,0 117.5,-1055.1 108.56,-1086.49" /><path
         id="path162"
         style="fill:#f79e87;fill-opacity:1;fill-rule:nonzero;stroke:none"
         d="m 4435.79,3540.74 c 1.09,2.46 126.6,119.51 108,146.89 -30.99,45.59 -73.09,92.58 -116.48,129.8 l -83.07,71.27 c 0,0 -105.23,-108.2 -110.92,-113.65 -79.21,-75.77 102.72,-197.11 102.72,-197.11 0,0 75.55,-92.15 99.75,-37.2" /><path
         id="path164"
         style="fill:#f79e87;fill-opacity:1;fill-rule:nonzero;stroke:none"
         d="m 4439.58,3691.69 193.31,-172.46 c 12.33,-11 31.44,-9.91 42.44,2.42 l 4.56,5.12 c 11.01,12.34 9.92,31.43 -2.42,42.44 l -193.3,172.46 c -12.33,11 -31.44,9.91 -42.44,-2.43 l -4.56,-5.11 c -11.01,-12.34 -9.92,-31.43 2.41,-42.44" /><path
         id="path166"
         style="fill:#f79e87;fill-opacity:1;fill-rule:nonzero;stroke:none"
         d="m 4427,3596.79 156.22,-139.37 c 12.35,-11.01 31.44,-9.92 42.44,2.42 l 4.57,5.11 c 11,12.34 9.92,31.44 -2.42,42.44 l -156.22,139.37 c -12.33,11.01 -31.43,9.92 -42.44,-2.42 l -4.56,-5.12 c -11.01,-12.33 -9.92,-31.43 2.41,-42.43" /><path
         id="path168"
         style="fill:#f79e87;fill-opacity:1;fill-rule:nonzero;stroke:none"
         d="m 4301.72,3602.71 183.96,-164.12 c 12.34,-11.01 31.44,-9.92 42.45,2.42 l 4.56,5.12 c 11,12.33 9.92,31.43 -2.43,42.43 l -183.96,164.13 c -12.34,11 -31.43,9.91 -42.43,-2.42 l -4.57,-5.12 c -11.01,-12.34 -9.92,-31.43 2.42,-42.44" /><path
         id="path170"
         style="fill:#f79e87;fill-opacity:1;fill-rule:nonzero;stroke:none"
         d="m 4332.14,3811.34 238.79,-100.43 c 15.23,-6.41 32.95,0.81 39.35,16.05 l 2.67,6.32 c 6.43,15.3 -0.75,32.93 -16.06,39.36 l -238.79,100.43 c -15.24,6.41 -32.95,-0.81 -39.36,-16.05 l -2.66,-6.32 c -6.41,-15.24 0.81,-32.96 16.06,-39.36" /><path
         id="path172"
         style="fill:#ffffff;fill-opacity:1;fill-rule:nonzero;stroke:none"
         d="m 4403.28,3888.14 -24.21,21.6 -53.8,47.85 -153.95,-172.59 -32.21,-36.22 10.35,-9.2 22.63,-20.32 44.91,-40 8.59,9.66 108.47,121.68 43.95,49.19 3.19,3.52 22.08,24.83" /><path
         id="path174"
         style="fill:#1a2545;fill-opacity:1;fill-rule:nonzero;stroke:none"
         d="m 4312.71,5437.77 -73.52,182.26 -20.1,17.07 c -2.51,-2.95 -36.75,-43.54 -85.05,-109.72 -41.22,-56.55 -92.84,-131.89 -143.81,-218.62 -156.02,-265.57 -229,-503.39 -217.09,-707.02 24.76,-423.21 343.9,-857.92 357.47,-876.21 l 18.85,14.05 34.72,25.7 142.94,105.98 20.13,14.78 31.82,23.7 21.62,15.98 c -2.56,3.57 -272.92,373.39 -291.84,695.74 -14.38,245.65 107.58,431.46 232.24,594.96 17.81,23.2 -41.83,205.52 -28.38,221.35" /><path
         id="path176"
         style="fill:#e12a33;fill-opacity:1;fill-rule:nonzero;stroke:none"
         d="m 4721.28,5718.34 36.49,-1167.62 116.76,-149.6 76.63,156.9 -171.49,1160.32 -58.39,0" /><path
         id="path178"
         style="fill:none;stroke:#171d39;stroke-width:19.16189957;stroke-linecap:round;stroke-linejoin:miter;stroke-miterlimit:10;stroke-dasharray:none;stroke-opacity:1"
         d="m 4779.2,6406.76 c 0,0 21.97,44.23 62.91,46.47 40.94,2.24 60.65,-27.79 60.65,-27.79" /><path
         id="path180"
         style="fill:none;stroke:#171d39;stroke-width:17.46649933;stroke-linecap:round;stroke-linejoin:miter;stroke-miterlimit:10;stroke-dasharray:none;stroke-opacity:1"
         d="m 5072.71,6447.56 c 0,0 13.34,46.12 47.41,48.79 34.07,2.67 58.83,-28.81 58.83,-28.81" /><path
         id="path182"
         style="fill:#52526e;fill-opacity:1;fill-rule:nonzero;stroke:none"
         d="m 6366.38,7204.11 -391.06,0 c -14.9,0 -27.09,12.19 -27.09,27.1 l 0,6.18 c 0,14.9 12.19,27.09 27.09,27.09 l 391.06,0 c 14.91,0 27.1,-12.19 27.1,-27.09 l 0,-6.18 c 0,-14.91 -12.19,-27.1 -27.1,-27.1" /><path
         id="path184"
         style="fill:#52526e;fill-opacity:1;fill-rule:nonzero;stroke:none"
         d="m 6366.38,7108.77 -391.06,0 c -14.9,0 -27.09,12.2 -27.09,27.1 l 0,6.18 c 0,14.9 12.19,27.1 27.09,27.1 l 391.06,0 c 14.91,0 27.1,-12.2 27.1,-27.1 l 0,-6.18 c 0,-14.9 -12.19,-27.1 -27.1,-27.1" /><path
         id="path186"
         style="fill:#52526e;fill-opacity:1;fill-rule:nonzero;stroke:none"
         d="m 6366.38,7013.44 -391.06,0 c -14.9,0 -27.09,12.19 -27.09,27.09 l 0,6.18 c 0,14.91 12.19,27.1 27.09,27.1 l 391.06,0 c 14.91,0 27.1,-12.19 27.1,-27.1 l 0,-6.18 c 0,-14.9 -12.19,-27.09 -27.1,-27.09" /><path
         id="path188"
         style="fill:#192645;fill-opacity:1;fill-rule:nonzero;stroke:none"
         d="m 6103.98,4660.37 0,0 c -43.57,46.47 -39.79,118.17 8.43,160.15 l 5.46,4.75 c 48.22,41.99 122.64,38.35 166.21,-8.12 43.58,-46.47 39.8,-118.17 -8.43,-160.15 l -5.45,-4.75 c -48.23,-41.98 -122.64,-38.35 -166.22,8.12" /><path
         id="path190"
         style="fill:#f14e30;fill-opacity:1;fill-rule:nonzero;stroke:none"
         d="m 6196.52,4434.86 -114.61,-99.77 -325.43,347.06 114.61,99.77 c 79.41,69.13 193.3,78.32 281.7,30.35 22.34,-12.08 42.99,-27.77 61.12,-47.09 44.89,-47.88 65.43,-108.8 62.36,-168.63 -3.23,-59.83 -30.06,-118.43 -79.75,-161.69" /><path
         id="path192"
         style="fill:#f8a12b;fill-opacity:1;fill-rule:nonzero;stroke:none"
         d="m 6092.98,4545.29 -114.61,-99.77 -221.89,236.63 114.61,99.77 c 79.41,69.13 193.3,78.32 281.7,30.35 15.2,-33.49 21.81,-69.56 19.93,-105.29 -3.23,-59.83 -30.05,-118.43 -79.74,-161.69" /><path
         id="path194"
         style="fill:#2f3564;fill-opacity:1;fill-rule:nonzero;stroke:none"
         d="m 6087.84,4336.43 c -34.57,-30.87 -136.74,20.7 -228.2,115.41 -91.47,94.71 -137.7,196.54 -103.07,227.51 27.27,24.47 96.89,-2.68 170.1,-61.93 19.28,-15.75 38.95,-33.65 58.01,-53.43 22.3,-23.13 41.96,-46.65 58.35,-69.49 50.93,-70.69 70.94,-134.69 44.81,-158.07" /><path
         id="path196"
         style="fill:#ffffff;fill-opacity:1;fill-rule:nonzero;stroke:none"
         d="m 6043.03,4494.5 c -26.48,-29.17 -71.53,-37.49 -108.03,-17.63 -41.69,22.69 -56.44,73.82 -32.84,114.08 6.3,10.74 14.72,19.7 24.51,26.47 19.28,-15.75 38.95,-33.65 58.01,-53.43 22.3,-23.13 41.96,-46.65 58.35,-69.49" /><path
         id="path198"
         style="fill:none;stroke:#192645;stroke-width:46.46969986;stroke-linecap:butt;stroke-linejoin:miter;stroke-miterlimit:10;stroke-dasharray:none;stroke-opacity:1"
         d="m 6682.78,3538.04 297.09,958.95 -601.6,400.76 L 6252,4790.41" /><path
         id="path200"
         style="fill:#192645;fill-opacity:1;fill-rule:nonzero;stroke:none"
         d="m 6444.33,4892.05 c 0,-39.36 -33.12,-71.27 -73.97,-71.27 -40.86,0 -73.97,31.91 -73.97,71.27 0,39.36 33.11,71.27 73.97,71.27 40.85,0 73.97,-31.91 73.97,-71.27" /><path
         id="path202"
         style="fill:#2f3564;fill-opacity:1;fill-rule:nonzero;stroke:none"
         d="m 6407.34,4892.05 c 0,-19.68 -16.56,-35.64 -36.98,-35.64 -20.43,0 -36.99,15.96 -36.99,35.64 0,19.68 16.56,35.64 36.99,35.64 20.42,0 36.98,-15.96 36.98,-35.64" /><path
         id="path204"
         style="fill:#f8a12b;fill-opacity:1;fill-rule:nonzero;stroke:none"
         d="m 6981.85,3416.56 -765.35,0 c 0,83.97 68.08,152.05 152.05,152.05 l 461.24,0 c 83.98,0 152.06,-68.08 152.06,-152.05" /><path
         id="path206"
         style="fill:#192645;fill-opacity:1;fill-rule:nonzero;stroke:none"
         d="m 6374.31,3564.8 138.066,0 0,41.8203 -138.066,0 0,-41.8203 z" /><path
         id="path208"
         style="fill:#192645;fill-opacity:1;fill-rule:nonzero;stroke:none"
         d="m 7077.51,4487.22 c 0,-55.11 -46.37,-99.78 -103.55,-99.78 -57.2,0 -103.57,44.67 -103.57,99.78 0,55.1 46.37,99.78 103.57,99.78 57.18,0 103.55,-44.68 103.55,-99.78" /><path
         id="path210"
         style="fill:#2f3564;fill-opacity:1;fill-rule:nonzero;stroke:none"
         d="m 7025.73,4487.22 c 0,-27.56 -23.18,-49.89 -51.77,-49.89 -28.61,0 -51.78,22.33 -51.78,49.89 0,27.55 23.17,49.89 51.78,49.89 28.59,0 51.77,-22.34 51.77,-49.89" /><path
         id="path212"
         style="fill:#581b3a;fill-opacity:1;fill-rule:nonzero;stroke:none"
         d="m 7409.83,3639.05 -695.23,0 0,242.84 695.23,0 c 33.39,0 60.46,-27.06 60.46,-60.45 l 0,-121.93 c 0,-33.39 -27.07,-60.46 -60.46,-60.46" /><path
         id="path214"
         style="fill:#581b3a;fill-opacity:1;fill-rule:nonzero;stroke:none"
         d="m 7154.21,3639.05 -695.24,0 0,242.84 695.24,0 c 33.39,0 60.46,-27.06 60.46,-60.45 l 0,-121.93 c 0,-33.39 -27.07,-60.46 -60.46,-60.46" /><path
         id="path216"
         style="fill:#ebedee;fill-opacity:1;fill-rule:nonzero;stroke:none"
         d="m 7120.44,3672.42 -661.47,0 0,185.26 661.47,0 c 28.6,0 51.79,-23.19 51.79,-51.79 l 0,-81.68 c 0,-28.6 -23.19,-51.79 -51.79,-51.79" /><path
         id="path218"
         style="fill:#ffffff;fill-opacity:1;fill-rule:nonzero;stroke:none"
         d="m 7267.39,3768.46 159.77,0 0,17.5781 -159.77,0 0,-17.5781 z" /><path
         id="path220"
         style="fill:#ffffff;fill-opacity:1;fill-rule:nonzero;stroke:none"
         d="m 7267.39,3730.82 159.77,0 0,17.5703 -159.77,0 0,-17.5703 z" /><path
         id="path222"
         style="fill:#581b3a;fill-opacity:1;fill-rule:nonzero;stroke:none"
         d="m 7523.72,4068.81 -695.24,0 0,242.85 695.24,0 c 33.39,0 60.46,-27.08 60.46,-60.46 l 0,-121.93 c 0,-33.4 -27.07,-60.46 -60.46,-60.46" /><path
         id="path224"
         style="fill:#581b3a;fill-opacity:1;fill-rule:nonzero;stroke:none"
         d="m 7268.09,4068.81 -695.24,0 0,242.85 695.24,0 c 33.39,0 60.45,-27.08 60.45,-60.46 l 0,-121.93 c 0,-33.4 -27.06,-60.46 -60.45,-60.46" /><path
         id="path226"
         style="fill:#ebedee;fill-opacity:1;fill-rule:nonzero;stroke:none"
         d="m 7243.2,4093.29 -670.35,0 0,194.15 670.35,0 c 28.61,0 51.8,-23.19 51.8,-51.8 l 0,-90.56 c 0,-28.61 -23.19,-51.79 -51.8,-51.79" /><path
         id="path228"
         style="fill:#ebedee;fill-opacity:1;fill-rule:nonzero;stroke:none"
         d="m 7362.24,4148.69 195.438,0 0,86.2773 -195.438,0 0,-86.2773 z" /><path
         id="path230"
         style="fill:#192645;fill-opacity:1;fill-rule:nonzero;stroke:none"
         d="m 7381.27,4198.22 159.77,0 0,17.5703 -159.77,0 0,-17.5703 z" /><path
         id="path232"
         style="fill:#192645;fill-opacity:1;fill-rule:nonzero;stroke:none"
         d="m 7381.27,4169.46 159.77,0 0,17.5781 -159.77,0 0,-17.5781 z" /><path
         id="path234"
         style="fill:#192645;fill-opacity:1;fill-rule:nonzero;stroke:none"
         d="m 7460.96,3408.98 -695.24,0 0,242.85 695.24,0 c 33.4,0 60.46,-27.06 60.46,-60.46 l 0,-121.93 c 0,-33.39 -27.06,-60.46 -60.46,-60.46" /><path
         id="path236"
         style="fill:#192645;fill-opacity:1;fill-rule:nonzero;stroke:none"
         d="m 7205.33,3408.98 -695.23,0 0,242.85 695.23,0 c 33.39,0 60.46,-27.06 60.46,-60.46 l 0,-121.93 c 0,-33.39 -27.07,-60.46 -60.46,-60.46" /><path
         id="path238"
         style="fill:#ebedee;fill-opacity:1;fill-rule:nonzero;stroke:none"
         d="m 7171.56,3442.35 -661.46,0 0,176.38 661.46,0 c 28.61,0 51.8,-23.19 51.8,-51.79 l 0,-72.79 c 0,-28.61 -23.19,-51.8 -51.8,-51.8" /><path
         id="path240"
         style="fill:#ebedee;fill-opacity:1;fill-rule:nonzero;stroke:none"
         d="m 7299.48,3488.87 195.441,0 0,86.2813 -195.441,0 0,-86.2813 z" /><path
         id="path242"
         style="fill:#192645;fill-opacity:1;fill-rule:nonzero;stroke:none"
         d="m 7318.52,3538.4 159.762,0 0,17.5664 -159.762,0 0,-17.5664 z" /><path
         id="path244"
         style="fill:#192645;fill-opacity:1;fill-rule:nonzero;stroke:none"
         d="m 7318.52,3509.64 159.762,0 0,17.5781 -159.762,0 0,-17.5781 z" /><path
         id="path246"
         style="fill:#d2322f;fill-opacity:1;fill-rule:nonzero;stroke:none"
         d="m 6622.98,4070.56 0,-188.85 806.66,0 c 52.12,0 94.42,42.3 94.42,94.43 0,26.01 -10.57,49.64 -27.62,66.8 -17.16,17.05 -40.8,27.62 -66.8,27.62 l -806.66,0" /><path
         id="path248"
         style="fill:#f36543;fill-opacity:1;fill-rule:nonzero;stroke:none"
         d="m 6529.25,4070.56 0,-188.85 678.85,0 c 52.11,0 94.42,42.3 94.42,94.43 0,26.01 -10.58,49.64 -27.63,66.8 -17.16,17.05 -40.79,27.62 -66.79,27.62 l -678.85,0" /><path
         id="path250"
         style="fill:#ebedee;fill-opacity:1;fill-rule:nonzero;stroke:none"
         d="m 6529.25,4038.19 0,-121.08 653.38,0 c 33.45,0 60.53,27.08 60.53,60.54 0,16.72 -6.79,31.83 -17.69,42.84 -11.02,10.9 -26.12,17.7 -42.84,17.7 l -653.38,0" /><path
         id="path252"
         style="fill:none;stroke:#9386ac;stroke-width:12.78129959;stroke-linecap:butt;stroke-linejoin:miter;stroke-miterlimit:10;stroke-dasharray:none;stroke-opacity:1"
         d="m 6572.78,4258.95 698.79,0" /><path
         id="path254"
         style="fill:none;stroke:#9386ac;stroke-width:12.78129959;stroke-linecap:butt;stroke-linejoin:miter;stroke-miterlimit:10;stroke-dasharray:none;stroke-opacity:1"
         d="m 6572.78,4218.47 698.79,0" /><path
         id="path256"
         style="fill:none;stroke:#9386ac;stroke-width:12.78129959;stroke-linecap:butt;stroke-linejoin:miter;stroke-miterlimit:10;stroke-dasharray:none;stroke-opacity:1"
         d="m 6572.78,4178 698.79,0" /><path
         id="path258"
         style="fill:none;stroke:#9386ac;stroke-width:12.78129959;stroke-linecap:butt;stroke-linejoin:miter;stroke-miterlimit:10;stroke-dasharray:none;stroke-opacity:1"
         d="m 6572.78,4137.52 698.79,0" /><path
         id="path260"
         style="fill:none;stroke:#9386ac;stroke-width:12.78129959;stroke-linecap:butt;stroke-linejoin:miter;stroke-miterlimit:10;stroke-dasharray:none;stroke-opacity:1"
         d="m 6458.44,3822.25 702.98,0" /><path
         id="path262"
         style="fill:none;stroke:#9386ac;stroke-width:12.78129959;stroke-linecap:butt;stroke-linejoin:miter;stroke-miterlimit:10;stroke-dasharray:none;stroke-opacity:1"
         d="m 6458.44,3781.78 702.98,0" /><path
         id="path264"
         style="fill:none;stroke:#9386ac;stroke-width:12.78129959;stroke-linecap:butt;stroke-linejoin:miter;stroke-miterlimit:10;stroke-dasharray:none;stroke-opacity:1"
         d="m 6458.44,3741.3 702.98,0" /><path
         id="path266"
         style="fill:none;stroke:#9386ac;stroke-width:12.78129959;stroke-linecap:butt;stroke-linejoin:miter;stroke-miterlimit:10;stroke-dasharray:none;stroke-opacity:1"
         d="m 6458.44,3700.83 702.98,0" /><path
         id="path268"
         style="fill:none;stroke:#9386ac;stroke-width:12.78129959;stroke-linecap:butt;stroke-linejoin:miter;stroke-miterlimit:10;stroke-dasharray:none;stroke-opacity:1"
         d="m 6511.69,3590.05 702.98,0" /><path
         id="path270"
         style="fill:none;stroke:#9386ac;stroke-width:12.78129959;stroke-linecap:butt;stroke-linejoin:miter;stroke-miterlimit:10;stroke-dasharray:none;stroke-opacity:1"
         d="m 6511.69,3549.58 702.98,0" /><path
         id="path272"
         style="fill:none;stroke:#9386ac;stroke-width:12.78129959;stroke-linecap:butt;stroke-linejoin:miter;stroke-miterlimit:10;stroke-dasharray:none;stroke-opacity:1"
         d="m 6511.69,3517.99 702.98,0" /><path
         id="path274"
         style="fill:none;stroke:#9386ac;stroke-width:12.78129959;stroke-linecap:butt;stroke-linejoin:miter;stroke-miterlimit:10;stroke-dasharray:none;stroke-opacity:1"
         d="m 6511.69,3477.52 702.98,0" /><path
         id="path276"
         style="fill:#1a2e4d;fill-opacity:1;fill-rule:nonzero;stroke:none"
         d="m 2555.87,1000.07 204.5,0 0,2215.43 -204.5,0 0,-2215.43 z" /><path
         id="path278"
         style="fill:#f79073;fill-opacity:1;fill-rule:nonzero;stroke:none"
         d="m 5495.24,3730.77 202.74,-58.12 c 14.79,-4.25 30.38,4.4 34.63,19.2 4.25,14.81 -4.4,30.39 -19.2,34.63 l -202.73,58.12 c -14.8,4.25 -30.39,-4.39 -34.64,-19.2 -4.23,-14.8 4.4,-30.39 19.2,-34.63" /><path
         id="path280"
         style="fill:#f79073;fill-opacity:1;fill-rule:nonzero;stroke:none"
         d="m 5551.14,3663.61 162.78,-46.66 c 14.8,-4.24 30.39,4.4 34.63,19.2 4.24,14.8 -4.4,30.39 -19.2,34.64 l -162.78,46.66 c -14.8,4.24 -30.39,-4.4 -34.63,-19.2 -4.24,-14.81 4.4,-30.39 19.2,-34.64" /><path
         id="path282"
         style="fill:#f79073;fill-opacity:1;fill-rule:nonzero;stroke:none"
         d="m 5504.88,3625.82 192.67,-55.24 c 14.8,-4.24 30.39,4.4 34.63,19.2 4.25,14.8 -4.4,30.39 -19.2,34.63 l -192.67,55.24 c -14.8,4.24 -30.39,-4.4 -34.63,-19.2 -4.24,-14.81 4.4,-30.39 19.2,-34.63" /><path
         id="path284"
         style="fill:#b0a5c7;fill-opacity:1;fill-rule:nonzero;stroke:none"
         d="m 6239.02,3427.46 -836.75,0 c -54.74,0 -90.91,56.91 -67.68,106.47 l 291.84,622.58 c 25.45,54.29 79.99,88.96 139.94,88.96 l 770.36,0 c 39.91,0 66.29,-41.49 49.34,-77.63 l -347.05,-740.38" /><path
         id="path286"
         style="fill:#b0a5c7;fill-opacity:1;fill-rule:nonzero;stroke:none"
         d="m 5405.37,3425.33 -596.65,0 c -24.09,0 -43.81,19.71 -43.81,43.81 0,24.1 19.72,43.81 43.81,43.81 l 596.65,0 c 24.09,0 43.81,-19.71 43.81,-43.81 0,-24.1 -19.72,-43.81 -43.81,-43.81" /><path
         id="path288"
         style="fill:#192645;fill-opacity:1;fill-rule:nonzero;stroke:none"
         d="m 5105.74,3458.35 85.2188,0 0,25.5586 -85.2188,0 0,-25.5586 z" /><path
         id="path290"
         style="fill:#192645;fill-opacity:1;fill-rule:nonzero;stroke:none"
         d="m 5018.41,3458.35 61.7813,0 0,25.5586 -61.7813,0 0,-25.5586 z" /><path
         id="path292"
         style="fill:#7d7591;fill-opacity:1;fill-rule:nonzero;stroke:none"
         d="m 6226.43,3427.46 -838.72,0 c -30.11,0 -50.01,31.3 -37.23,58.56 l 314.3,670.49 c 25.43,54.29 79.98,88.96 139.93,88.96 l 770.37,0 c 39.91,0 66.28,-41.49 49.34,-77.63 l -325.43,-694.25 c -13.2,-28.15 -41.48,-46.13 -72.56,-46.13" /><path
         id="path294"
         style="fill:#ffffff;fill-opacity:1;fill-rule:nonzero;stroke:none"
         d="m 6043.19,3788.68 c -19.88,-46.52 -57.05,-75.24 -83.01,-64.14 -25.96,11.1 -30.89,57.8 -11.01,104.32 19.88,46.52 57.04,75.24 83.01,64.14 25.96,-11.1 30.9,-57.8 11.01,-104.32" /><path
         id="path296"
         style="fill:#7d7591;fill-opacity:1;fill-rule:nonzero;stroke:none"
         d="m 3552.81,1000.07 204.5,0 0,2215.43 -204.5,0 0,-2215.43 z" /><path
         id="path298"
         style="fill:#7d7591;fill-opacity:1;fill-rule:nonzero;stroke:none"
         d="m 6168.75,1000.06 204.48,0 0,2215.48 -204.48,0 0,-2215.48 z" /><path
         id="path300"
         style="fill:#7d7591;fill-opacity:1;fill-rule:nonzero;stroke:none"
         d="m 7165.66,1000.06 204.5,0 0,2215.48 -204.5,0 0,-2215.48 z" /><path
         id="path302"
         style="fill:#2f3564;fill-opacity:1;fill-rule:nonzero;stroke:none"
         d="m 6168.75,3215.54 204.48,0 0,-730.76 -204.48,-101.49 0,832.25" /><path
         id="path304"
         style="fill:#2f3564;fill-opacity:1;fill-rule:nonzero;stroke:none"
         d="m 7370.16,3215.54 0,-236.04 -204.5,-101.48 0,337.52 204.5,0" /><path
         id="path306"
         style="fill:#2f3564;fill-opacity:1;fill-rule:nonzero;stroke:none"
         d="m 3759.02,3219.9 0,-239.08 -207.13,-102.8 0,341.88 207.13,0" /><path
         id="path308"
         style="fill:#2f3564;fill-opacity:1;fill-rule:nonzero;stroke:none"
         d="m 2363.82,3149.4 4590.4,0 0,174.86 c 0,55.98 -45.38,101.36 -101.37,101.36 l -4387.67,0 c -55.99,0 -101.36,-45.38 -101.36,-101.36 l 0,-174.86" /><path
         id="path310"
         style="fill:#c4c3c8;fill-opacity:1;fill-rule:nonzero;stroke:none"
         d="m 3035.51,3416.95 1002.53,0 0,213.301 -1002.53,0 0,-213.301 z" /><path
         id="path312"
         style="fill:#ebedee;fill-opacity:1;fill-rule:nonzero;stroke:none"
         d="m 3577.06,3414.53 463.621,0 0,218.148 -463.621,0 0,-218.148 z" /><path
         id="path314"
         style="fill:none;stroke:#9386ac;stroke-width:15.72159958;stroke-linecap:butt;stroke-linejoin:miter;stroke-miterlimit:10;stroke-dasharray:none;stroke-opacity:1"
         d="m 3036.4,3591 1003.4,0" /><path
         id="path316"
         style="fill:none;stroke:#9386ac;stroke-width:15.72159958;stroke-linecap:butt;stroke-linejoin:miter;stroke-miterlimit:10;stroke-dasharray:none;stroke-opacity:1"
         d="m 3036.4,3548.09 1003.4,0" /><path
         id="path318"
         style="fill:none;stroke:#9386ac;stroke-width:15.72159958;stroke-linecap:butt;stroke-linejoin:miter;stroke-miterlimit:10;stroke-dasharray:none;stroke-opacity:1"
         d="m 3036.4,3505.19 1003.4,0" /><path
         id="path320"
         style="fill:none;stroke:#9386ac;stroke-width:15.72159958;stroke-linecap:butt;stroke-linejoin:miter;stroke-miterlimit:10;stroke-dasharray:none;stroke-opacity:1"
         d="m 3036.4,3462.29 1003.4,0" /><path
         id="path322"
         style="fill:#5e2b48;fill-opacity:1;fill-rule:nonzero;stroke:none"
         d="m 1375.02,1008.72 1386.02,0 0,1775.68 -1386.02,0 0,-1775.68 z" /><path
         id="path324"
         style="fill:#5e2b48;fill-opacity:1;fill-rule:nonzero;stroke:none"
         d="m 1890.11,1008.72 1473.52,0 0,1775.68 -1473.52,0 0,-1775.68 z" /><path
         id="path326"
         style="fill:#f36543;fill-opacity:1;fill-rule:nonzero;stroke:none"
         d="m 1984.38,2184.49 1292.1,0 0,469.863 -1292.1,0 0,-469.863 z" /><path
         id="path328"
         style="fill:#f36543;fill-opacity:1;fill-rule:nonzero;stroke:none"
         d="m 1984.38,1633.14 1292.1,0 0,469.859 -1292.1,0 0,-469.859 z" /><path
         id="path330"
         style="fill:#f36543;fill-opacity:1;fill-rule:nonzero;stroke:none"
         d="m 1984.38,1081.79 1292.1,0 0,469.859 -1292.1,0 0,-469.859 z" /><path
         id="path332"
         style="fill:#ffffff;fill-opacity:1;fill-rule:nonzero;stroke:none"
         d="m 2857.16,2394.25 -324.13,0 c -13.55,0 -24.62,11.08 -24.62,24.62 l 0,1.11 c 0,13.54 11.07,24.61 24.62,24.61 l 324.13,0 c 13.54,0 24.62,-11.07 24.62,-24.61 l 0,-1.11 c 0,-13.54 -11.08,-24.62 -24.62,-24.62" /><path
         id="path334"
         style="fill:#ffffff;fill-opacity:1;fill-rule:nonzero;stroke:none"
         d="m 2869.75,1846.78 -324.14,0 c -13.54,0 -24.61,11.08 -24.61,24.62 l 0,1.1 c 0,13.54 11.07,24.62 24.61,24.62 l 324.14,0 c 13.53,0 24.62,-11.08 24.62,-24.62 l 0,-1.1 c 0,-13.54 -11.09,-24.62 -24.62,-24.62" /><path
         id="path336"
         style="fill:#ffffff;fill-opacity:1;fill-rule:nonzero;stroke:none"
         d="m 2869.75,1299.31 -324.14,0 c -13.54,0 -24.61,11.08 -24.61,24.62 l 0,1.1 c 0,13.54 11.07,24.62 24.61,24.62 l 324.14,0 c 13.53,0 24.62,-11.08 24.62,-24.62 l 0,-1.1 c 0,-13.54 -11.09,-24.62 -24.62,-24.62" /><path
         id="path338"
         style="fill:#f8a12b;fill-opacity:1;fill-rule:nonzero;stroke:none"
         d="m 2809.47,3794.27 0,-313.65 -262.02,0 0,313.65 c 0,13.81 11.25,25.06 25.06,25.06 l 211.91,0 c 13.8,0 25.05,-11.25 25.05,-25.06" /><path
         id="path340"
         style="fill:#f14e30;fill-opacity:1;fill-rule:nonzero;stroke:none"
         d="m 2550.68,3534.29 c -3.41,1.97 -83.84,49.07 -91.02,131.6 -2.75,31.46 9.17,50.95 19.64,61.77 28.79,29.73 76.63,28.01 81.98,27.73 l -2.09,-38.29 c -9.71,0.45 -38.31,-1.52 -52.42,-16.2 -7.2,-7.48 -10.12,-17.85 -8.92,-31.69 5.47,-62.79 71.27,-101.29 71.94,-101.67 l -19.11,-33.25" /><path
         id="path342"
         style="fill:#d2322f;fill-opacity:1;fill-rule:nonzero;stroke:none"
         d="m 2744.77,3619.62 -75.09,0 c -26.04,0 -47.13,21.1 -47.13,47.13 0,26.03 21.09,47.13 47.13,47.13 l 75.09,0 c 26.03,0 47.12,-21.1 47.12,-47.13 0,-26.03 -21.09,-47.13 -47.12,-47.13" /><path
         id="path344"
         style="fill:#f14e30;fill-opacity:1;fill-rule:nonzero;stroke:none"
         d="m 2687.03,3480.62 -139.58,0 0,313.65 c 0,13.81 11.25,25.06 25.06,25.06 l 8.44,0 c 0.38,-16.37 4.85,-141.49 40,-231.61 30.54,-78.47 57.77,-101.6 66.08,-107.1" /><path
         id="path346"
         style="fill:none;stroke:#9386ac;stroke-width:12.78129959;stroke-linecap:butt;stroke-linejoin:miter;stroke-miterlimit:10;stroke-dasharray:none;stroke-opacity:1"
         d="m 6511.69,3590.05 702.98,0" /><path
         id="path348"
         style="fill:none;stroke:#9386ac;stroke-width:12.78129959;stroke-linecap:butt;stroke-linejoin:miter;stroke-miterlimit:10;stroke-dasharray:none;stroke-opacity:1"
         d="m 6511.69,3549.58 702.98,0" /><path
         id="path350"
         style="fill:none;stroke:#9386ac;stroke-width:12.78129959;stroke-linecap:butt;stroke-linejoin:miter;stroke-miterlimit:10;stroke-dasharray:none;stroke-opacity:1"
         d="m 6511.69,3517.99 702.98,0" /><path
         id="path352"
         style="fill:none;stroke:#9386ac;stroke-width:12.78129959;stroke-linecap:butt;stroke-linejoin:miter;stroke-miterlimit:10;stroke-dasharray:none;stroke-opacity:1"
         d="m 6511.69,3477.52 702.98,0" /><path
         id="path354"
         style="fill:#ffffff;fill-opacity:1;fill-rule:nonzero;stroke:none"
         d="m 3478.25,3626.64 168.29,362.13 166.16,-357.87 -334.45,-4.26" /><path
         id="path356"
         style="fill:#ffffff;fill-opacity:1;fill-rule:nonzero;stroke:none"
         d="m 3344.05,3637.29 302.488,0 0,349.359 -302.488,0 0,-349.359 z" /><path
         id="path358"
         style="fill:#2f3564;fill-opacity:1;fill-rule:nonzero;stroke:none"
         d="m 3188.54,3626.64 153.38,357.87 166.16,-357.87 -319.54,0" /><path
         id="path360"
         style="fill:#9386ac;fill-opacity:1;fill-rule:nonzero;stroke:none"
         d="m 3467.61,3927 151.242,0 0,14.9102 -151.242,0 0,-14.9102 z" /><path
         id="path362"
         style="fill:#9386ac;fill-opacity:1;fill-rule:nonzero;stroke:none"
         d="m 3480.38,3897.17 151.25,0 0,14.9102 -151.25,0 0,-14.9102 z" /><path
         id="path364"
         style="fill:#9386ac;fill-opacity:1;fill-rule:nonzero;stroke:none"
         d="m 3502.23,3849.51 70.22,-165.55 154.17,3.76 -74.92,160.57 -149.47,1.22 z m 61.94,-178.75 -81.09,191.15 176.51,-0.68 87.07,-185.33 -182.49,-5.14" /><path
         id="path366"
         style="fill:none;stroke:#9386ac;stroke-width:12.98419952;stroke-linecap:butt;stroke-linejoin:miter;stroke-miterlimit:10;stroke-dasharray:none;stroke-opacity:1"
         d="m 3511.81,3822.08 161.58,0" /><path
         id="path368"
         style="fill:none;stroke:#9386ac;stroke-width:12.98419952;stroke-linecap:butt;stroke-linejoin:miter;stroke-miterlimit:10;stroke-dasharray:none;stroke-opacity:1"
         d="m 3525.82,3787.2 161.58,0" /><path
         id="path370"
         style="fill:none;stroke:#9386ac;stroke-width:12.98419952;stroke-linecap:butt;stroke-linejoin:miter;stroke-miterlimit:10;stroke-dasharray:none;stroke-opacity:1"
         d="m 3537.36,3752.32 161.59,0" /><path
         id="path372"
         style="fill:none;stroke:#9386ac;stroke-width:12.98419952;stroke-linecap:butt;stroke-linejoin:miter;stroke-miterlimit:10;stroke-dasharray:none;stroke-opacity:1"
         d="m 3556.32,3717.44 161.58,0" /><path
         id="path374"
         style="fill:none;stroke:#9386ac;stroke-width:12.98419952;stroke-linecap:butt;stroke-linejoin:miter;stroke-miterlimit:10;stroke-dasharray:none;stroke-opacity:1"
         d="m 3625.24,3851.64 75.09,-166.96" /><path
         id="path376"
         style="fill:none;stroke:#9386ac;stroke-width:12.98419952;stroke-linecap:butt;stroke-linejoin:miter;stroke-miterlimit:10;stroke-dasharray:none;stroke-opacity:1"
         d="m 3580.51,3850.84 75.09,-166.95" /><path
         id="path378"
         style="fill:none;stroke:#9386ac;stroke-width:12.98419952;stroke-linecap:butt;stroke-linejoin:miter;stroke-miterlimit:10;stroke-dasharray:none;stroke-opacity:1"
         d="m 3536.54,3854.01 74.32,-173.32" /><path
         id="path380"
         style="fill:#424fa8;fill-opacity:1;fill-rule:nonzero;stroke:none"
         d="m 7225.62,3662.27 -41.96,7.43 102.47,578.94 41.96,-7.42 -102.47,-578.95" /><path
         id="path382"
         style="fill:#424fa8;fill-opacity:1;fill-rule:nonzero;stroke:none"
         d="m 7312.45,4079.57 -65.02,11.5 30.81,174.11 65.03,-11.51 -30.82,-174.1" /><path
         id="path384"
         style="fill:#5e2b48;fill-opacity:1;fill-rule:nonzero;stroke:none"
         d="m 7155.67,3588.35 -42.45,3.56 49.13,585.89 25.69,37.48 16.77,-41.04 -49.14,-585.89" /><path
         id="path386"
         style="fill:#1a2e4d;fill-opacity:1;fill-rule:nonzero;stroke:none"
         d="m 7096.67,3558.41 -41.82,-8.14 -112.35,577.11 14.5,43.06 27.32,-34.92 112.35,-577.11" /><path
         id="path388"
         style="fill:#f14e30;fill-opacity:1;fill-rule:nonzero;stroke:none"
         d="m 7190.68,3424.17 -182.09,0 -59.69,482.06 301.49,0 -59.71,-482.06" /><path
         id="path390"
         style="fill:#f8a12b;fill-opacity:1;fill-rule:nonzero;stroke:none"
         d="m 7259.35,3424.17 -182.09,0 -26.87,482.06 268.66,0 -59.7,-482.06" /><path
         id="path392"
         style="fill:#424fa8;fill-opacity:1;fill-rule:nonzero;stroke:none"
         d="m 2763.61,3017.54 0,-234.52 -727.99,0 c -50.84,0 -94.27,32.48 -110.51,77.83 -4.36,12.28 -6.8,25.58 -6.8,39.48 0,32.27 13.09,61.6 34.3,82.91 21.31,21.21 50.64,34.3 83.01,34.3 l 727.99,0" /><path
         id="path394"
         style="fill:#31427f;fill-opacity:1;fill-rule:nonzero;stroke:none"
         d="m 2489.33,2860.85 0,-77.83 -453.71,0 c -50.84,0 -94.27,32.48 -110.51,77.83 l 564.22,0" /><path
         id="path396"
         style="fill:#192645;fill-opacity:1;fill-rule:nonzero;stroke:none"
         d="m 3038.77,3017.58 0,-234.58 -727.99,0 c -64.74,0 -117.29,52.55 -117.29,117.29 0,32.31 13.13,61.66 34.31,82.98 21.32,21.17 50.68,34.31 82.98,34.31 l 727.99,0" /><path
         id="path398"
         style="fill:#ebedee;fill-opacity:1;fill-rule:nonzero;stroke:none"
         d="m 3038.77,2977.36 0,-150.39 -696.36,0 c -41.55,0 -75.19,33.65 -75.19,75.2 0,20.77 8.43,39.54 21.98,53.21 13.67,13.55 32.44,21.99 53.21,21.99 l 696.36,-0.01" /><path
         id="path400"
         style="fill:#f8a12b;fill-opacity:1;fill-rule:nonzero;stroke:none"
         d="m 2779.45,3483.72 0,-234.58 -727.99,0.01 c -64.74,0 -117.29,52.54 -117.29,117.29 0,32.3 13.14,61.66 34.32,82.97 21.31,21.18 50.67,34.32 82.97,34.32 l 727.99,-0.01" /><path
         id="path402"
         style="fill:#fbd41f;fill-opacity:1;fill-rule:nonzero;stroke:none"
         d="m 2502.85,3405.42 0,77.83 -453.7,0 c -50.84,0 -94.28,-32.47 -110.51,-77.83 l 564.21,0" /><path
         id="path404"
         style="fill:#f36543;fill-opacity:1;fill-rule:nonzero;stroke:none"
         d="m 3038.77,3483.72 0,-234.58 -727.99,0.01 c -64.74,0 -117.29,52.54 -117.29,117.29 0,32.3 13.13,61.66 34.31,82.97 21.32,21.18 50.68,34.32 82.98,34.32 l 727.99,-0.01" /><path
         id="path406"
         style="fill:#ebedee;fill-opacity:1;fill-rule:nonzero;stroke:none"
         d="m 3038.77,3443.51 0,-150.4 -696.36,0.01 c -41.55,0 -75.19,33.64 -75.19,75.19 0,20.78 8.43,39.54 21.98,53.21 13.67,13.55 32.44,21.99 53.21,21.99 l 696.36,0" /><path
         id="path408"
         style="fill:#94d223;fill-opacity:1;fill-rule:nonzero;stroke:none"
         d="m 2821.77,3247.79 0,-234.62 -728,0 c -64.75,0 -117.21,52.57 -117.21,117.31 0,19.89 4.97,38.67 13.69,55.11 5.49,10.24 12.49,19.68 20.61,27.9 21.31,21.21 50.63,34.3 82.91,34.3 l 728,0" /><path
         id="path410"
         style="fill:#63a130;fill-opacity:1;fill-rule:nonzero;stroke:none"
         d="m 2709.12,3247.79 0,-62.2 -718.87,0 c 5.49,10.24 12.49,19.68 20.61,27.9 21.31,21.21 50.63,34.3 82.91,34.3 l 615.35,0" /><path
         id="path412"
         style="fill:#63a130;fill-opacity:1;fill-rule:nonzero;stroke:none"
         d="m 2709.12,3013.07 0,62.21 -718.87,0 c 5.49,-10.25 12.49,-19.69 20.61,-27.91 21.31,-21.21 50.63,-34.3 82.91,-34.3 l 615.35,0" /><path
         id="path414"
         style="fill:#468632;fill-opacity:1;fill-rule:nonzero;stroke:none"
         d="m 3181.66,3247.78 0,-234.58 -727.99,0.01 c -64.74,0 -117.29,52.54 -117.29,117.29 0,32.31 13.13,61.66 34.31,82.97 21.31,21.18 50.67,34.32 82.98,34.32 l 727.99,-0.01" /><path
         id="path416"
         style="fill:#ebedee;fill-opacity:1;fill-rule:nonzero;stroke:none"
         d="m 3181.66,3207.57 0,-150.39 -696.36,0 c -41.56,0 -75.19,33.64 -75.19,75.2 0,20.77 8.43,39.53 21.98,53.21 13.67,13.54 32.43,21.98 53.21,21.98 l 696.36,0" /><path
         id="path418"
         style="fill:#497f2f;fill-opacity:1;fill-rule:nonzero;stroke:none"
         d="m 2063.28,3402.3 c -97.39,-132.63 -292.78,-154.64 -292.78,-154.64 0,0 -37.48,193.01 59.92,325.65 97.39,132.63 292.78,154.64 292.78,154.64 0,0 37.48,-193.02 -59.92,-325.65" /><path
         id="path420"
         style="fill:#386834;fill-opacity:1;fill-rule:nonzero;stroke:none"
         d="m 1654.31,3481.61 c 89.28,-87.99 84.41,-237.71 84.41,-237.71 0,0 -149.63,-7.04 -238.92,80.95 -89.27,87.99 -84.4,237.71 -84.4,237.71 0,0 149.63,7.04 238.91,-80.95" /><path
         id="path422"
         style="fill:#59b84c;fill-opacity:1;fill-rule:nonzero;stroke:none"
         d="m 1875.6,3548.17 c 18.13,-163.54 -110.74,-312.05 -110.74,-312.05 0,0 -158.28,116.66 -176.42,280.21 -18.14,163.54 110.73,312.05 110.73,312.05 0,0 158.28,-116.66 176.43,-280.21" /><path
         id="path424"
         style="fill:#5e2b48;fill-opacity:1;fill-rule:nonzero;stroke:none"
         d="m 1863.51,2784.27 -338.92,0 -111.12,494.48 561.16,0 -111.12,-494.48" /><path
         id="path426"
         style="fill:#9d4534;fill-opacity:1;fill-rule:nonzero;stroke:none"
         d="m 1991.3,2784.27 -338.92,0 -50.01,494.48 500.05,0 -111.12,-494.48" /><path
         id="path428"
         style="fill:#5273c2;fill-opacity:1;fill-rule:nonzero;stroke:none"
         d="m 3377.8,3149.4 4334.78,0 0,174.86 c 0,55.98 -45.38,101.36 -101.37,101.36 l -4132.05,0 c -55.98,0 -101.36,-45.38 -101.36,-101.36 l 0,-174.86" /></g></g></svg>