<?xml version="1.0" encoding="iso-8859-1"?>
<!-- Generator: Adobe Illustrator 19.0.0, SVG Export Plug-In . SVG Version: 6.00 Build 0)  -->
<svg version="1.1" id="Layer_1" xmlns="http://www.w3.org/2000/svg" xmlns:xlink="http://www.w3.org/1999/xlink" x="0px" y="0px"
	 viewBox="0 0 512 512" style="enable-background:new 0 0 512 512;" xml:space="preserve">
<circle style="fill:#00C3FF;" cx="256" cy="256" r="184"/>
<path style="fill:#00AAF0;" d="M348,390.462c-101.62,0-184-82.38-184-184c0-51.071,20.818-97.271,54.417-130.608
	C134.823,93.205,72,167.261,72,256c0,101.62,82.38,184,184,184c50.55,0,96.327-20.395,129.583-53.392
	C373.449,389.126,360.881,390.462,348,390.462z"/>
<g>
	<path style="fill:#C8FF82;" d="M437.34,223.956c-14.137-80.174-78.196-138.961-154.566-150.145l12.511,15.278
		c1.49,1.819,1.844,4.316,0.921,6.478l-8.522,19.947c-0.881,2.062-3.681,2.363-4.979,0.534l-7.984-11.242
		c-1.251-1.762-3.313-2.766-5.471-2.665l-8.548,0.401c-3.089,0.145-5.926,1.747-7.645,4.318l-23.604,35.296
		c-2.195,3.283-0.336,7.742,3.541,8.492l10.932,2.116c3.678,0.712,7.331-1.343,8.632-4.856l5.355-14.457
		c1.504-4.059,6.869-4.909,9.554-1.513l4.851,6.137l-2.741,19.428c-0.178,1.26-1.163,2.252-2.422,2.438l-24.83,3.679
		c-1.056,0.156-2.058,0.568-2.919,1.198l-24.472,17.917c-2.475,1.812-4.223,4.447-4.93,7.432l-2.356,9.948
		c-0.745,3.146-3.735,5.229-6.944,4.837l-11.075-1.351c-2.916-0.356-5.695,1.336-6.718,4.09l-6.184,16.65
		c-1.287,3.464,0.646,7.291,4.198,8.31l13.954,4.007c3.545,1.018,7.3-0.718,8.822-4.077l9.038-19.953
		c1.482-3.271,4.279-5.761,7.7-6.854l14.936-4.771l20.076,24.363l-1.919,5.668c-1.162,3.437,0.68,7.17,4.121,8.335
		c0.693,0.238,1.406,0.35,2.105,0.35c2.741,0,5.296-1.73,6.227-4.468l1.919-5.668c1.428-4.217,0.582-8.872-2.239-12.317
		l-16.837-20.561l4.318-1.379l14.291,8.865c3.059,1.898,5.206,4.967,5.94,8.491l3.218,15.453c0.642,3.1,3.377,5.232,6.426,5.232
		c0.443,0,0.892-0.045,1.348-0.138c3.55-0.741,5.835-4.221,5.09-7.777l-1.66-8.807c-0.583-3.096,1.533-6.053,4.652-6.498l0,0
		c2.316-0.331,4.174-2.084,4.638-4.377l3.146-15.545c0.837-2.883,3.58-4.786,6.574-4.559l3.22,0.244
		c1.827,0.138,3.559-0.525,4.821-1.731c1.273-1.216,2.863-2.042,4.616-1.89l9.984,0.865c2.087,0.702,3.662,2.438,4.158,4.583
		l0.957,4.136c0.758,3.275-1.169,6.572-4.393,7.52l-28.641,8.418c-3.256,0.957-4.41,4.977-2.157,7.515l2.655,2.992
		c1.189,1.34,2.94,2.04,4.725,1.89l16.642-1.401c3.216-0.271,6.123,1.915,6.756,5.08l0.846,4.23
		c1.491,7.457-3.864,14.543-11.445,15.143l-32.058,2.539c-3.639,0.288-6.138,3.864-5.056,7.351c1.39,4.475-2.866,8.633-7.301,7.155
		l-23.948-7.983c-3.187-1.062-5.519-3.809-6.049-7.126l-0.007-0.045c-0.713-4.455-4.611-7.697-9.121-7.585l-22.652,0.559
		c-8.13,0.201-16.142,1.989-23.585,5.264l-7.892,3.473c-4.452,1.959-7.393,6.289-7.573,11.149l-0.235,6.333l-22.775,26.028
		c-2.025,2.314-3.141,5.284-3.141,8.359v27.873c0,5.165,2.099,10.109,5.815,13.697l20.003,19.313
		c3.143,3.034,7.234,4.896,11.586,5.272l59.982,5.178c3.715,0.321,6.42,3.664,5.957,7.364l-0.35,2.804
		c-0.567,4.538,1.351,9.031,5.021,11.76l14.688,10.922l-2.27,7.313c-1.51,4.865,0.035,10.162,3.924,13.452l15.605,13.476
		c15.536-2.746,30.269-7.37,44.01-13.591l24.306-29.176c3.928-4.693,7.157-9.929,9.585-15.546l27.048-62.547
		c2.914-6.738-1.933-14.453-9.273-14.4c-7.873,0.057-15.353-3.417-20.389-9.46l-26.955-32.344c-2.324-2.789-1.945-6.933,0.841-9.257
		c2.799-2.324,6.939-1.945,9.263,0.841l26.957,32.346c2.364,2.837,5.805,4.54,9.475,4.713c3.738,0.176,8.186-2.713,9.87-6.055
		l15.678-31.124c1.423-2.825,0.548-6.268-2.051-8.071l-4.493-3.116c-1.703-1.181-2.172-3.493-1.064-5.244l2.218-3.508
		c4.322-6.834,13.847-7.939,19.618-2.275l17.075,16.756C439.437,238.761,438.648,231.375,437.34,223.956z"/>
	<path style="fill:#C8FF82;" d="M200.519,179.159c-1.74,0-3.473-0.687-4.763-2.048c-2.503-2.632-2.394-6.792,0.238-9.292
		l5.841-5.549l-0.218-14.174c-0.058-3.63,2.844-6.618,6.471-6.676c0.039,0,0.071,0,0.103,0c3.588,0,6.515,2.876,6.573,6.471
		l0.263,17.056c0.026,1.839-0.713,3.604-2.048,4.869l-7.934,7.536C203.774,178.559,202.143,179.159,200.519,179.159z"/>
</g>
<path style="fill:#B4E66E;" d="M348,390.461c-81.165,0-150.006-52.577-174.451-125.512L151.3,290.376
	c-2.024,2.314-3.141,5.284-3.141,8.359v27.873c0,5.165,2.099,10.109,5.815,13.697l20.003,19.313
	c3.143,3.035,7.234,4.896,11.586,5.271l59.982,5.178c3.715,0.321,6.419,3.665,5.957,7.364l-0.351,2.804
	c-0.567,4.539,1.351,9.031,5.021,11.76l14.688,10.921l-2.27,7.313c-1.51,4.865,0.035,10.162,3.924,13.452l15.594,13.467
	c0.114-0.02,0.228-0.041,0.341-0.061c11.233-2.007,22.037-5.009,32.356-8.873c0.847-0.319,1.683-0.658,2.523-0.989
	c2.257-0.883,4.485-1.816,6.692-2.783c0.737-0.325,1.47-0.657,2.203-0.991l24.211-29.062c1.145-1.368,2.098-2.873,3.121-4.329
	C355.732,390.3,351.886,390.461,348,390.461z"/>
<g>
	<path style="fill:#D5DCED;" d="M487.359,146.281c-1.891-3.984-6.688-5.688-10.656-3.797c-3.992,1.898-5.695,6.672-3.797,10.656
		C488.227,185.398,496,220,496,256c0,132.336-107.664,240-240,240c-70.126,0-135.178-29.796-180.826-82.224l27.725,9.24
		c4.219,1.414,8.719-0.867,10.117-5.055c1.398-4.195-0.867-8.727-5.055-10.117L54.82,390.125c-2.625-0.891-5.523-0.336-7.656,1.445
		c-2.133,1.773-3.188,4.523-2.797,7.273l8.852,62c0.57,3.992,3.992,6.867,7.914,6.867c0.375,0,0.758-0.023,1.141-0.078
		c4.375-0.625,7.414-4.68,6.789-9.055l-4.703-32.929C112.984,480.715,181.815,512,256,512c141.156,0,256-114.844,256-256
		C512,217.609,503.711,180.688,487.359,146.281z"/>
	<path style="fill:#D5DCED;" d="M16,256C16,123.664,123.664,16,256,16c69.922,0,135.133,29.835,180.806,82.217l-27.704-9.233
		c-4.219-1.414-8.719,0.867-10.117,5.055c-1.398,4.195,0.867,8.727,5.055,10.117l53.141,17.719c0.828,0.281,1.68,0.414,2.531,0.414
		c1.844,0,3.664-0.641,5.125-1.859c2.133-1.773,3.188-4.523,2.797-7.273l-8.852-62c-0.625-4.375-4.688-7.422-9.055-6.789
		c-4.375,0.625-7.414,4.68-6.789,9.055l4.685,32.806C398.979,31.245,329.95,0,256,0C114.844,0,0,114.844,0,256
		c0,38.391,8.289,75.313,24.641,109.719c1.367,2.883,4.242,4.57,7.234,4.57c1.148,0,2.32-0.25,3.422-0.773
		c3.992-1.898,5.695-6.672,3.797-10.656C23.773,326.602,16,292,16,256z"/>
</g>
<g>
</g>
<g>
</g>
<g>
</g>
<g>
</g>
<g>
</g>
<g>
</g>
<g>
</g>
<g>
</g>
<g>
</g>
<g>
</g>
<g>
</g>
<g>
</g>
<g>
</g>
<g>
</g>
<g>
</g>
</svg>
